<?xml version="1.0" encoding="utf-8"?><svg width="36" height="32" viewBox="0 0 36 32" xmlns="http://www.w3.org/2000/svg" xmlns:xlink="http://www.w3.org/1999/xlink"><view id="background" viewBox="14 18 12 12"/><svg width="12" height="12" fill="#ccc" viewBox="0 0 12 12" x="14" y="18" xmlns="http://www.w3.org/2000/svg"><path d="M0 0h6v6H0zM6 6h6v6H6z"/></svg><view id="checkmark-dark" viewBox="0 0 18 18"/><svg viewBox="0 0 24 24" width="18" height="18" xmlns="http://www.w3.org/2000/svg"><path d="M9 16.172 19.594 5.578 21 6.984l-12 12-5.578-5.578L4.828 12z" fill="#fff"/></svg><view id="checkmark-light" viewBox="18 0 18 18"/><svg viewBox="0 0 24 24" width="18" height="18" x="18" xmlns="http://www.w3.org/2000/svg"><path d="M9 16.172 19.594 5.578 21 6.984l-12 12-5.578-5.578L4.828 12z"/></svg><view id="clear" viewBox="0 18 14 14"/><svg viewBox="0 0 24 24" width="14" height="14" y="18" xmlns="http://www.w3.org/2000/svg"><path d="M12 20.016q3.281 0 5.648-2.367t2.367-5.648q0-2.672-1.734-4.922L7.078 18.282q2.25 1.734 4.922 1.734zM3.984 12q0 2.672 1.734 4.922L16.921 5.719q-2.25-1.734-4.922-1.734-3.281 0-5.648 2.367T3.984 12zM12 2.016q4.125 0 7.055 2.93t2.93 7.055-2.93 7.055T12 21.986t-7.055-2.93-2.93-7.055 2.93-7.055T12 2.016z"/></svg></svg>